<svg width="30" height="30" viewBox="0 0 30 30" fill="none" xmlns="http://www.w3.org/2000/svg">
<path d="M22.458 21.7854L21.6413 20.9688C23.707 18.735 24.98 15.7566 24.98 12.49C24.98 5.59648 19.3835 0 12.49 0C5.59648 0 0 5.59648 0 12.49C0 19.3835 5.59648 24.98 12.49 24.98C15.7566 24.98 18.735 23.707 20.9688 21.6413L21.7854 22.458L20.5124 23.731L26.7814 30L30 26.7814L23.731 20.5124L22.458 21.7854ZM12.49 24.0192C6.1249 24.0192 0.960769 18.8551 0.960769 12.49C0.960769 6.1249 6.1249 0.960769 12.49 0.960769C18.8551 0.960769 24.0192 6.1249 24.0192 12.49C24.0192 18.8551 18.8551 24.0192 12.49 24.0192ZM26.7814 28.6549L21.8575 23.731L23.731 21.8575L28.6549 26.7814L26.7814 28.6549Z" fill="#FFC700"/>
</svg>
