<svg width="33" height="14" viewBox="0 0 33 14" fill="none" xmlns="http://www.w3.org/2000/svg">
<path d="M32.8639 5.56578C32.5446 4.79175 31.9591 4.3914 31.1342 4.3914C30.8415 4.3914 30.4956 4.44478 30.123 4.55154L24.455 6.52663C24.455 6.49994 24.455 6.49994 24.455 6.47325C24.455 6.44656 24.455 6.41987 24.455 6.39318C24.455 6.3398 24.455 6.31311 24.455 6.25973C24.455 6.23304 24.455 6.20635 24.455 6.20635V6.17966V6.15297C24.455 6.09959 24.4284 6.01951 24.4284 5.96613C24.4284 5.96613 24.4284 5.96613 24.4284 5.93944C24.1889 4.89852 23.2309 4.12449 22.1133 4.12449H17.6161C15.5405 1.48214 10.724 1.45545 10.5111 1.45545H7.05177V0.174316H0V11.9448H7.05177V10.8238L15.78 13.5996C15.8332 13.6263 17.1371 13.9999 18.6273 13.9999C19.5321 13.9999 20.3304 13.8665 21.0222 13.5729C22.7785 12.8523 29.8303 9.06222 31.9591 7.91453C32.5446 7.56756 33.3163 6.66008 32.8639 5.56578ZM5.98735 10.8505H1.06442V1.21524H5.98735V1.40207V10.4234V10.8505ZM31.4269 6.95368C29.3247 8.10137 22.2995 11.838 20.5965 12.5587C20.0643 12.7722 19.399 12.9056 18.6273 12.9056C17.2702 12.9056 16.0727 12.5587 16.0727 12.5587L7.02515 9.70279V2.46969H10.4845C10.5377 2.46969 15.2212 2.49638 16.871 4.92521L17.0307 5.16542H22.0601C22.7253 5.16542 23.2841 5.64585 23.364 6.28642V6.31311C23.364 6.36649 23.364 6.39318 23.364 6.44656C23.364 6.49994 23.364 6.55332 23.3373 6.6067C23.3373 6.63339 23.3373 6.66008 23.3373 6.68677C23.3373 6.74016 23.3107 6.79354 23.2841 6.84692C23.2841 6.87361 23.2841 6.9003 23.2575 6.9003C23.2309 6.98037 23.2043 7.03375 23.1511 7.08713C22.9382 7.40742 22.5656 7.62094 22.1399 7.62094H15.2212V8.68855H22.1399C22.8584 8.68855 23.5236 8.34158 23.9494 7.80777L30.4157 5.56578C30.6818 5.48571 30.9213 5.45901 31.1342 5.45901C31.5334 5.45901 31.7196 5.59247 31.8793 5.96613C32.0922 6.47325 31.5866 6.87361 31.4269 6.95368Z" fill="#FFC700"/>
</svg>
