<svg width="19" height="30" viewBox="0 0 19 30" fill="none" xmlns="http://www.w3.org/2000/svg">
<path d="M17.3436 23.16L13.641 21.384L12.4231 20.808V20.424C13.7872 19.512 15.2974 17.736 16.5641 14.4C17.2218 14.376 17.7821 14.088 18.1231 13.608C18.5372 13.032 18.6103 12.264 18.3179 11.64C18.2205 11.424 18.0744 11.256 17.9282 11.112H18.5128V8.808L17.4654 8.52V8.376C17.4654 5.376 15.7359 2.664 13.0077 1.344C12.8615 0.816 12.3987 0.432 11.8141 0.432H9.98718V0H9.01282V0.408H7.1859C6.60128 0.408 6.13846 0.792 5.99231 1.32C3.2641 2.64 1.53462 5.376 1.53462 8.352V8.496L0.487179 8.808V11.112H1.07179C0.901282 11.256 0.779487 11.448 0.682051 11.64C0.389743 12.264 0.462821 13.032 0.876923 13.608C1.24231 14.112 1.80256 14.376 2.4359 14.4C3.70256 17.736 5.23718 19.488 6.57692 20.424V20.808L5.67564 21.24L1.65641 23.16C0.657692 23.64 0 24.648 0 25.752V30H19V25.752C19 24.648 18.3423 23.64 17.3436 23.16ZM11.4244 21.432C11.4 21.552 11.3756 21.648 11.3513 21.768V21.792C11.3269 21.84 11.3269 21.864 11.3026 21.912C11.3026 21.936 11.2782 21.96 11.2782 21.984C11.2538 22.008 11.2538 22.032 11.2295 22.056C11.2051 22.104 11.1808 22.152 11.1564 22.176C11.1564 22.176 11.1564 22.176 11.1564 22.2C10.9372 22.512 10.6449 22.752 10.3038 22.896C10.3038 22.896 10.3038 22.896 10.2795 22.896C10.2308 22.92 10.1821 22.944 10.1333 22.944H10.109C10.0603 22.968 10.0115 22.968 9.96282 22.968C9.93846 22.968 9.93846 22.968 9.9141 22.968C9.86538 22.968 9.81667 22.992 9.76795 22.992C9.74359 22.992 9.74359 22.992 9.71923 22.992C9.64615 22.992 9.59744 22.992 9.52436 22.992C8.45256 22.992 7.57564 22.128 7.57564 21.072V20.928C8.37949 21.288 9.06154 21.36 9.52436 21.36C9.98718 21.36 10.6692 21.288 11.4731 20.928V21.12C11.4487 21.168 11.4244 21.312 11.4244 21.432ZM17.3436 13.056C17.2462 13.176 17.1244 13.32 16.9051 13.392C17.0269 12.864 17.1244 12.288 17.1731 11.76C17.2949 11.832 17.3923 11.928 17.441 12.072C17.5872 12.36 17.5628 12.768 17.3436 13.056ZM1.46154 9.528L2.50897 9.24V8.376C2.50897 5.928 3.84872 3.672 5.94359 2.448V5.328H6.91795V1.632C6.91795 1.488 7.03974 1.368 7.1859 1.368H9.01282V6.888H9.98718V1.368H11.8141C11.9603 1.368 12.0821 1.488 12.0821 1.632V5.304H13.0564V2.424C15.1756 3.648 16.491 5.904 16.491 8.352V9.216L17.5385 9.504V10.128H1.46154V9.528ZM1.65641 13.056C1.43718 12.768 1.41282 12.36 1.55897 12.072C1.63205 11.952 1.70513 11.832 1.82692 11.76C1.87564 12.36 1.99744 12.888 2.11923 13.392C1.9 13.32 1.75385 13.176 1.65641 13.056ZM3.23974 13.776C3.02051 12.984 2.80128 12.144 2.75256 11.112H16.2474C16.2231 11.88 16.0526 13.032 15.7846 13.752C13.5923 19.776 10.6692 20.424 9.5 20.424C8.35513 20.448 5.43205 19.8 3.23974 13.776ZM18.0256 29.04H15.8333V28.32H14.859V29.04H4.14103V28.32H3.16667V29.04H0.974359V25.752C0.974359 25.008 1.41282 24.336 2.07051 24.024L6.67436 21.84C6.67436 21.864 6.69872 21.888 6.69872 21.912C6.69872 21.936 6.72308 21.984 6.72308 22.008C6.74744 22.056 6.7718 22.128 6.79615 22.176C6.79615 22.2 6.82051 22.224 6.82051 22.248C6.84487 22.32 6.89359 22.392 6.91795 22.44C6.91795 22.44 6.91795 22.464 6.94231 22.464C6.99103 22.536 7.03974 22.608 7.08846 22.68C7.11282 22.704 7.11282 22.728 7.13718 22.752C7.16154 22.8 7.21026 22.848 7.25897 22.896C7.28333 22.92 7.30769 22.944 7.33205 22.968C7.35641 23.016 7.40513 23.04 7.45385 23.088C7.4782 23.112 7.50256 23.136 7.52692 23.16C7.57564 23.208 7.6 23.232 7.64872 23.28C7.67308 23.304 7.69744 23.328 7.7218 23.352C7.77051 23.4 7.81923 23.424 7.86795 23.472C7.89231 23.496 7.91667 23.496 7.91667 23.52C7.98974 23.568 8.06282 23.616 8.1359 23.664C8.16026 23.664 8.16026 23.688 8.18462 23.688C8.25769 23.712 8.30641 23.76 8.37949 23.784C8.40385 23.808 8.4282 23.808 8.47692 23.808C8.52564 23.832 8.57436 23.856 8.64744 23.856C8.67179 23.856 8.72051 23.88 8.74487 23.88C8.79359 23.904 8.86667 23.904 8.91538 23.928C8.93974 23.928 8.98846 23.952 9.01282 23.952C9.06154 23.952 9.13461 23.976 9.20769 23.976C9.23205 23.976 9.25641 23.976 9.30513 23.976C9.40256 23.976 9.5 24 9.57308 24C9.67051 24 9.74359 24 9.84103 24C9.88974 24 9.93846 24 9.96282 23.976C10.0115 23.976 10.0359 23.976 10.0846 23.952C10.1333 23.952 10.2064 23.928 10.2551 23.904C10.2795 23.904 10.3038 23.904 10.3282 23.88C10.4013 23.856 10.45 23.832 10.5231 23.832C10.5474 23.832 10.5474 23.832 10.5718 23.808C10.6449 23.784 10.7179 23.76 10.7667 23.736H10.791C10.8641 23.712 10.9372 23.664 10.9859 23.64C11.059 23.592 11.1077 23.568 11.1808 23.52C11.2538 23.472 11.3026 23.448 11.3513 23.4C11.3513 23.4 11.3756 23.4 11.3756 23.376C11.4244 23.328 11.4731 23.28 11.5218 23.256L11.5462 23.232C11.5949 23.184 11.6192 23.16 11.6679 23.112C11.6923 23.088 11.7167 23.064 11.7167 23.04C11.741 23.016 11.7654 22.968 11.8141 22.944C11.8385 22.896 11.8872 22.872 11.9115 22.824C11.9359 22.8 11.9359 22.776 11.9603 22.776C12.1551 22.512 12.3013 22.2 12.3744 21.864L16.9538 24.048C17.6359 24.36 18.05 25.056 18.05 25.776V29.04H18.0256Z" fill="#FFC700"/>
</svg>
