<svg width="23" height="23" viewBox="0 0 23 23" fill="none" xmlns="http://www.w3.org/2000/svg">
<path d="M11.4996 0C5.14849 0 0 5.14889 0 11.5C0 17.8511 5.14869 23 11.4996 23C17.8509 23 23 17.8509 23 11.5C22.9998 5.14889 17.8509 0 11.4996 0ZM13.54 7.56148H17.0152V8.40199H13.54V7.56148ZM11.5217 14.4528C11.3395 14.8229 11.0906 15.119 10.7752 15.3403C10.4598 15.5612 10.0711 15.6976 9.60898 15.7485C9.31887 15.7799 8.61973 15.7994 7.51097 15.8076H4.5792V7.19302H8.0224C8.70404 7.19302 9.21229 7.22145 9.54714 7.27832C9.882 7.33519 10.1817 7.4535 10.4461 7.63366C10.7102 7.81381 10.9309 8.05382 11.1071 8.35348C11.2833 8.65314 11.3715 8.98899 11.3715 9.36102C11.3715 9.76448 11.2628 10.1349 11.0452 10.4718C10.8277 10.8086 10.533 11.0613 10.161 11.2298C10.6857 11.3827 11.0896 11.6434 11.3715 12.011C11.6535 12.3797 11.7945 12.8122 11.7945 13.3097C11.7947 13.7016 11.7038 14.0826 11.5217 14.4528ZM14.3916 14.1067C14.6592 14.3789 14.9927 14.5149 15.392 14.5149C15.6638 14.5149 15.8923 14.4443 16.0778 14.3033C16.2627 14.1623 16.4029 14.0564 16.4976 13.743L18.279 13.7324C18.2673 14.3091 17.6535 14.9609 17.1736 15.2759C16.694 15.5912 16.0939 15.7489 15.3731 15.7489C14.2329 15.7489 13.3886 15.3948 12.8414 14.6855C12.4087 14.1174 12.1928 13.4004 12.1928 12.5348C12.1928 11.5006 12.4767 10.6909 13.0448 10.1053C13.6129 9.5197 14.3316 9.2268 15.2003 9.2268C16.1762 9.2268 16.946 9.53342 17.5103 10.1463C18.0742 10.7595 18.3436 11.6986 18.3192 12.9639H13.9718C13.9844 13.4531 14.1242 13.834 14.3916 14.1067Z" fill="white"/>
</svg>
