<svg width="28" height="23" viewBox="0 0 28 23" fill="none" xmlns="http://www.w3.org/2000/svg">
<path d="M26.0875 0.093987L0.729079 9.74207C0.713992 9.74778 0.699366 9.75461 0.685328 9.7625C0.479696 9.87703 -0.955354 10.74 1.06815 11.5138L1.08894 11.5213L7.12719 13.4393C7.17326 13.4541 7.22204 13.4587 7.27012 13.4529C7.31821 13.4472 7.36443 13.4312 7.40556 13.406L22.3822 4.21874C22.419 4.19621 22.4599 4.18104 22.5026 4.17411C22.7109 4.14023 23.3109 4.07678 22.9313 4.5505C22.502 5.08821 12.2724 14.1013 11.137 15.1009C11.0715 15.1586 11.031 15.2389 11.0238 15.3251L10.5283 21.1323C10.5283 21.1915 10.5422 21.2498 10.5691 21.3027C10.5959 21.3557 10.635 21.4017 10.6831 21.4372C10.7514 21.4795 10.8316 21.4991 10.9121 21.4931C10.9926 21.487 11.0689 21.4558 11.1299 21.4039L14.7175 18.2513C14.7742 18.2015 14.8465 18.1723 14.9224 18.1685C14.9983 18.1646 15.0733 18.1865 15.1348 18.2303L21.394 22.6987L21.4142 22.7121C21.5657 22.804 23.202 23.7402 23.6746 21.6496L27.995 1.45062C28.001 1.38663 28.0596 0.683314 27.5482 0.267666C27.0112 -0.166801 26.251 0.0525835 26.1367 0.0762426C26.1198 0.0808572 26.1034 0.0867911 26.0875 0.093987Z" fill="white"/>
</svg>
