<svg width="23" height="23" viewBox="0 0 23 23" fill="none" xmlns="http://www.w3.org/2000/svg">
<path fill-rule="evenodd" clip-rule="evenodd" d="M11.5007 0C5.14984 0 0 5.14859 0 11.5007C0 16.2084 2.83188 20.2547 6.88491 22.0331C6.85238 21.2312 6.87952 20.2655 7.08364 19.3919C7.30538 18.4588 8.56319 13.1264 8.56319 13.1264C8.56319 13.1264 8.19663 12.392 8.19663 11.3061C8.19663 9.60214 9.18527 8.32959 10.4145 8.32959C11.4599 8.32959 11.9658 9.11537 11.9658 10.0566C11.9658 11.1074 11.295 12.6802 10.9502 14.1367C10.6621 15.3579 11.5615 16.3519 12.765 16.3519C14.9437 16.3519 16.411 13.5538 16.411 10.2379C16.411 7.7183 14.7137 5.83176 11.6263 5.83176C8.13859 5.83176 5.96527 8.43238 5.96527 11.3374C5.96527 12.3409 6.26013 13.0468 6.72265 13.5932C6.9363 13.846 6.96469 13.9461 6.8876 14.2356C6.83352 14.4453 6.7063 14.9565 6.65365 15.1579C6.57656 15.4486 6.34117 15.5541 6.07883 15.4459C4.4708 14.7901 3.72295 13.0306 3.72295 11.052C3.72295 7.78604 6.47773 3.86688 11.9413 3.86688C16.3325 3.86688 19.2226 7.04627 19.2226 10.4557C19.2226 14.9672 16.7153 18.3373 13.0166 18.3373C11.7764 18.3373 10.608 17.6665 10.2077 16.9052C10.2077 16.9052 9.53961 19.5545 9.39891 20.0657C9.15544 20.9516 8.67801 21.8387 8.24119 22.5283C9.27601 22.8336 10.3687 23 11.5007 23C17.8514 23 23 17.8514 23 11.5007C23 5.14859 17.8514 0 11.5007 0Z" fill="white"/>
</svg>
