<svg width="33" height="24" viewBox="0 0 33 24" fill="none" xmlns="http://www.w3.org/2000/svg">
<path d="M0.281182 4.88188C0.428992 2.60629 2.25854 0.82291 4.53613 0.710072C7.83424 0.546675 12.5482 0.349609 16.1 0.349609C19.6518 0.349609 24.3658 0.546675 27.6639 0.710072C29.9415 0.82291 31.771 2.60629 31.9188 4.88188C32.0604 7.06207 32.2 9.74472 32.2 11.8496C32.2 13.9545 32.0604 16.6371 31.9188 18.8173C31.771 21.0929 29.9415 22.8763 27.6639 22.9891C24.3658 23.1525 19.6518 23.3496 16.1 23.3496C12.5482 23.3496 7.83424 23.1525 4.53614 22.9891C2.25854 22.8763 0.428992 21.0929 0.281182 18.8173C0.139568 16.6371 0 13.9545 0 11.8496C0 9.74472 0.139569 7.06207 0.281182 4.88188Z" fill="white"/>
</svg>
