<svg width="38" height="38" viewBox="0 0 38 38" fill="none" xmlns="http://www.w3.org/2000/svg">
<path fill-rule="evenodd" clip-rule="evenodd" d="M37.791 18.8711C37.791 29.0884 29.5083 37.3711 19.291 37.3711C9.07375 37.3711 0.791016 29.0884 0.791016 18.8711C0.791016 8.65383 9.07375 0.371094 19.291 0.371094C29.5083 0.371094 37.791 8.65383 37.791 18.8711ZM20.0434 26.9861H18.5913C18.5913 26.9861 15.3875 27.179 12.5663 24.2417C9.48941 21.0379 6.77202 14.6804 6.77202 14.6804C6.77202 14.6804 6.61538 14.2635 6.78554 14.062C6.97682 13.8355 7.49787 13.821 7.49787 13.821L10.9688 13.7982C10.9688 13.7982 11.2959 13.8529 11.5301 14.0248C11.723 14.1666 11.8312 14.4317 11.8312 14.4317C11.8312 14.4317 12.3921 15.8504 13.1351 17.1339C14.5852 19.6396 15.2606 20.1877 15.7529 19.9192C16.4702 19.5278 16.2552 16.3771 16.2552 16.3771C16.2552 16.3771 16.2684 15.2334 15.8941 14.7242C15.6042 14.3295 15.0574 14.2144 14.816 14.1821C14.6208 14.156 14.9413 13.7026 15.3569 13.4991C15.9815 13.1931 17.0846 13.1756 18.3879 13.1891C19.4033 13.1993 19.6954 13.2626 20.0925 13.3586C21.0137 13.581 20.985 14.2938 20.923 15.8315C20.9045 16.291 20.883 16.8242 20.883 17.44C20.883 17.5785 20.8789 17.7262 20.8748 17.8781C20.8533 18.6657 20.8286 19.5674 21.347 19.9024C21.6128 20.0739 22.2631 19.9282 23.8896 17.1662C24.6606 15.8573 25.2387 14.3183 25.2387 14.3183C25.2387 14.3183 25.365 14.0439 25.5612 13.9262C25.7621 13.8061 26.0328 13.843 26.0328 13.843L29.6855 13.8203C29.6855 13.8203 30.783 13.6894 30.9607 14.1847C31.1471 14.7048 30.5505 15.919 29.0582 17.9079C27.6411 19.7967 26.9524 20.491 27.0172 21.1059C27.0644 21.5542 27.512 21.9603 28.3696 22.7563C30.1676 24.4252 30.6468 25.3015 30.7607 25.5098C30.7699 25.5266 30.7767 25.5391 30.7817 25.5473C31.5863 26.8816 29.8893 26.9861 29.8893 26.9861L26.6452 27.0313C26.6452 27.0313 25.9481 27.1695 25.0306 26.5392C24.5508 26.21 24.0818 25.6722 23.6348 25.1598C22.9516 24.3766 22.3202 23.6527 21.7813 23.8235C20.877 24.1104 20.9054 26.0588 20.9054 26.0588C20.9054 26.0588 20.912 26.4749 20.7059 26.6966C20.482 26.938 20.0434 26.9861 20.0434 26.9861Z" fill="white"/>
</svg>
