<svg width="53" height="38" viewBox="0 0 53 38" fill="none" xmlns="http://www.w3.org/2000/svg">
<path d="M1.2451 7.66214C1.4838 4.00141 4.43835 1.13249 8.11645 0.950969C13.4426 0.688113 21.0552 0.371094 26.791 0.371094C32.5269 0.371094 40.1394 0.688113 45.4656 0.950969C49.1437 1.13249 52.0982 4.00141 52.3369 7.66214C52.5656 11.1694 52.791 15.485 52.791 18.8711C52.791 22.2572 52.5656 26.5728 52.3369 30.08C52.0982 33.7408 49.1437 36.6097 45.4656 36.7912C40.1394 37.0541 32.5269 37.3711 26.791 37.3711C21.0552 37.3711 13.4426 37.0541 8.11645 36.7912C4.43835 36.6097 1.4838 33.7408 1.2451 30.08C1.01641 26.5728 0.791016 22.2572 0.791016 18.8711C0.791016 15.485 1.01641 11.1694 1.2451 7.66214Z" fill="white"/>
<path d="M21.2207 11.4712V26.2708L36.0775 18.871L21.2207 11.4712Z" fill="#1C1C1C"/>
</svg>
